<svg xmlns="http://www.w3.org/2000/svg" width="1506.364" height="1716.465" viewBox="0 0 1506.364 1716.465">
    <g id="Gruppe_25" data-name="Gruppe 25" transform="translate(-167.913 692.268)" opacity="0.216">
        <path id="Pfad_54" data-name="Pfad 54"
              d="M832.79,353.98c-.118,64.692-54.231,117.042-120.863,116.927S591.373,418.256,591.491,353.564s54.23-117.042,120.863-116.927A122.19,122.19,0,0,1,797.7,271,115.113,115.113,0,0,1,832.79,353.98Z"
              transform="translate(368.607 69.29)" fill="#f2f2f2"/>
        <circle id="Ellipse_16" data-name="Ellipse 16" cx="79.828" cy="79.828" r="79.828"
                transform="translate(1041.742 369.617)" fill="#fff"/>
        <path id="Pfad_57" data-name="Pfad 57"
              d="M731.991,316.22a75,75,0,0,1-5.351,17.08c-14.082,29.79,26.02,20.08,40.351,20.08,15.669,0,30.661,8.239,28.371-28.371-.978-15.638-12.7-28.371-28.371-28.371C753.607,296.638,734.79,302.586,731.991,316.22Z"
              transform="translate(357 102)" fill="#2f2e41"/>
        <circle id="Ellipse_17" data-name="Ellipse 17" cx="23.055" cy="23.055" r="23.055"
                transform="translate(1098.589 409.263)" fill="#ffb6b6"/>
        <path id="Pfad_58" data-name="Pfad 58"
              d="M748.987,306.817a26.409,26.409,0,0,1,40.15,23.048c-11.748,2.949-24.089,5.207-36.617.705l-2.959-7.241-1.744,7.246c-3.815,1.559-7.64,2.879-11.465-.015A26.965,26.965,0,0,1,748.987,306.817Z"
              transform="translate(357 102)" fill="#2f2e41"/>
        <path id="Pfad_59" data-name="Pfad 59"
              d="M826.64,400.525A79.8,79.8,0,0,1,714.956,408.6l6.847-19.105a20.546,20.546,0,0,1,17.452-11.984l4.356-.267L754,368.282s27.986-1,27.571-1.478L798.52,377l-.014-.07,6.664.408a20.537,20.537,0,0,1,17.452,11.984Z"
              transform="translate(357 102)" fill="#6c63ff"/>
        <path id="Pfad_61" data-name="Pfad 61"
              d="M240.567,240.462l-1.984-27.589a89.244,89.244,0,0,0-41.9-9.4c20.432,15.793,18.8,47.358,32.945,68.96a53.681,53.681,0,0,0,40.028,23.722l17,9.783A89.952,89.952,0,0,0,265.717,233.6a86.89,86.89,0,0,0-16.368-14.4C245.632,229.871,240.567,240.462,240.567,240.462Z"
              transform="translate(316.126 126.377)" fill="#f2f2f2"/>
        <path id="Pfad_70" data-name="Pfad 70"
              d="M764.57,428.272A80.828,80.828,0,1,1,845.4,347.445,80.828,80.828,0,0,1,764.57,428.272Zm0-159.655A78.828,78.828,0,1,0,843.4,347.445a78.828,78.828,0,0,0-78.828-78.828Z"
              transform="translate(357 102)" fill="#3f3d56"/>
        <circle id="Ellipse_19" data-name="Ellipse 19" cx="79.828" cy="79.828" r="79.828"
                transform="translate(762.742 203.617)" fill="#fff"/>
        <circle id="Ellipse_20" data-name="Ellipse 20" cx="26.03" cy="26.03" r="26.03"
                transform="translate(820.234 239.527)" fill="#ffb8b8"/>
        <path id="bf427902-b9bf-4946-b5d7-5c1c7e04535e"
              d="M512.184,146.361s6.777-12.956-8.133-14.134c0,0-12.711-11.531-25.668-2.108,0,0-7.067,0-10.932,8,0,0-5.558-2.108-6.78,3.534,0,0-4.067,11.779,0,22.379s5.418,11.779,5.418,11.779-2.854-13.155,13.414-14.333,31.191-11.369,32.547,1.588,2.846,7.1,2.846,7.1S527.772,151.661,512.184,146.361Z"
              transform="translate(357 102)" fill="#2f2e41"/>
        <path id="Pfad_71" data-name="Pfad 71"
              d="M545.6,234.525A79.8,79.8,0,0,1,433.92,242.6l6.847-19.105a20.546,20.546,0,0,1,17.452-11.984l4.356-.267,10.387-8.958s27.986-1,27.571-1.478L517.484,211l-.014-.07,6.664.408a20.537,20.537,0,0,1,17.452,11.984Z"
              transform="translate(357 102)" fill="#6c63ff"/>
        <path id="Pfad_72" data-name="Pfad 72"
              d="M485.57,262.272A80.828,80.828,0,1,1,566.4,181.445a80.828,80.828,0,0,1-80.828,80.828Zm0-159.655A78.828,78.828,0,1,0,564.4,181.445a78.828,78.828,0,0,0-78.828-78.828Z"
              transform="translate(357 102)" fill="#3f3d56"/>
        <circle id="Ellipse_21" data-name="Ellipse 21" cx="79.828" cy="79.828" r="79.828"
                transform="translate(576.419 329.617)" fill="#fff"/>
        <path id="Pfad_73" data-name="Pfad 73"
              d="M262.247,281.477c3.3-10.52,10.807-20.168,21.188-23.724s25.583,1.861,33.387,9.639c14.276,14.228,17.76,63.106,7.952,78.552-1.951-.1-8.683-.18-10.657-.254l-2.793-9.31V345.6q-4.719-.146-9.511-.2a41.393,41.393,0,0,1-40.867-40.371C260.691,294.78,260.947,285.622,262.247,281.477Z"
              transform="translate(357 102)" fill="#2f2e41"/>
        <circle id="Ellipse_22" data-name="Ellipse 22" cx="22.75" cy="22.75" r="22.75"
                transform="translate(632.313 372.841)" fill="#9e616a"/>
        <path id="Pfad_74" data-name="Pfad 74"
              d="M278.429,273.611l26.195-13.116h0a32.924,32.924,0,0,1,19.284,27.278l.653,7.821L313.591,292.8l-1.2-10-1.863,9.22-5.062-1.288.048-15.526-5.065,15.514-18.08-4.154Z"
              transform="translate(357 102)" fill="#2f2e41"/>
        <path id="Pfad_75" data-name="Pfad 75"
              d="M358.484,360.271A79.8,79.8,0,0,1,246.8,368.343l6.847-19.105A20.546,20.546,0,0,1,271.1,337.253l4.356-.267,10.387-8.958s27.986-1,27.571-1.478l16.952,10.2-.014-.07,6.664.408a20.537,20.537,0,0,1,17.452,11.984Z"
              transform="translate(357 102)" fill="#6c63ff"/>
        <path id="Pfad_76" data-name="Pfad 76"
              d="M299.247,388.272a80.828,80.828,0,1,1,80.828-80.828,80.828,80.828,0,0,1-80.828,80.828Zm0-159.655a78.828,78.828,0,1,0,78.828,78.828,78.828,78.828,0,0,0-78.828-78.828Z"
              transform="translate(357 102)" fill="#3f3d56"/>
        <path id="Pfad_79" data-name="Pfad 79"
              d="M419.43,471.387H317.765a10.288,10.288,0,0,1-10.277-10.277V398.494a10.288,10.288,0,0,1,10.277-10.277H419.43a10.288,10.288,0,0,1,10.277,10.277V461.11a10.288,10.288,0,0,1-10.277,10.277Z"
              transform="translate(357 102)" fill="#e6e6e6"/>
        <path id="Pfad_80" data-name="Pfad 80"
              d="M379.037,463.322H324.912a9.636,9.636,0,0,1-9.625-9.624v-47.79a9.636,9.636,0,0,1,9.625-9.625h87.373a9.635,9.635,0,0,1,9.625,9.625v14.543a42.92,42.92,0,0,1-42.872,42.871Z"
              transform="translate(357 102)" fill="#fff"/>
        <path id="Pfad_81" data-name="Pfad 81"
              d="M403.568,422.451H333.628a2.281,2.281,0,1,1,0-4.562h69.941a2.281,2.281,0,0,1,0,4.562Z"
              transform="translate(357 102)" fill="#6c63ff"/>
        <path id="Pfad_82" data-name="Pfad 82"
              d="M344.568,431.465H333.628a2.281,2.281,0,0,1,0-4.562h10.941a2.281,2.281,0,0,1,0,4.562Z"
              transform="translate(357 102)" fill="#6c63ff"/>
        <path id="Pfad_83" data-name="Pfad 83"
              d="M363.945,440.478H333.628a2.281,2.281,0,0,1,0-4.562h30.318a2.281,2.281,0,1,1,0,4.562Z"
              transform="translate(357 102)" fill="#6c63ff"/>
        <circle id="Ellipse_23" data-name="Ellipse 23" cx="21.506" cy="21.506" r="21.506"
                transform="translate(639.435 467.464)" fill="#3f3d56"/>
        <path id="Pfad_84" data-name="Pfad 84"
              d="M683.43,187.387H581.765a10.288,10.288,0,0,1-10.277-10.277V114.494a10.288,10.288,0,0,1,10.277-10.277H683.43a10.288,10.288,0,0,1,10.277,10.277V177.11a10.288,10.288,0,0,1-10.277,10.277Z"
              transform="translate(357 102)" fill="#e6e6e6"/>
        <path id="Pfad_85" data-name="Pfad 85"
              d="M643.037,179.322H588.912a9.636,9.636,0,0,1-9.625-9.624v-47.79a9.636,9.636,0,0,1,9.625-9.625h87.373a9.635,9.635,0,0,1,9.625,9.625v14.543a42.92,42.92,0,0,1-42.872,42.871Z"
              transform="translate(357 102)" fill="#fff"/>
        <path id="Pfad_86" data-name="Pfad 86"
              d="M667.568,138.451H597.628a2.281,2.281,0,1,1,0-4.562h69.94a2.281,2.281,0,0,1,0,4.562Z"
              transform="translate(357 102)" fill="#6c63ff"/>
        <path id="Pfad_87" data-name="Pfad 87"
              d="M608.568,147.465H597.628a2.281,2.281,0,1,1,0-4.562h10.94a2.281,2.281,0,1,1,0,4.562Z"
              transform="translate(357 102)" fill="#6c63ff"/>
        <path id="Pfad_88" data-name="Pfad 88"
              d="M627.945,156.478H597.628a2.281,2.281,0,1,1,0-4.562h30.318a2.281,2.281,0,1,1,0,4.562Z"
              transform="translate(357 102)" fill="#6c63ff"/>
        <circle id="Ellipse_24" data-name="Ellipse 24" cx="21.506" cy="21.506" r="21.506"
                transform="translate(903.435 258.464)" fill="#3f3d56"/>
        <circle id="Ellipse_25" data-name="Ellipse 25" cx="21.506" cy="21.506" r="21.506"
                transform="translate(1174.435 413.798)" fill="#3f3d56"/>
        <path id="Pfad_96" data-name="Pfad 96"
              d="M683.43,187.387H581.765a10.288,10.288,0,0,1-10.277-10.277V114.494a10.288,10.288,0,0,1,10.277-10.277H683.43a10.288,10.288,0,0,1,10.277,10.277V177.11a10.288,10.288,0,0,1-10.277,10.277Z"
              transform="translate(626.605 222)" fill="#e6e6e6"/>
        <path id="Pfad_97" data-name="Pfad 97"
              d="M643.037,179.322H588.912a9.636,9.636,0,0,1-9.625-9.624v-47.79a9.636,9.636,0,0,1,9.625-9.625h87.373a9.635,9.635,0,0,1,9.625,9.625v14.543a42.92,42.92,0,0,1-42.872,42.871Z"
              transform="translate(626.605 222)" fill="#fff"/>
        <path id="Pfad_98" data-name="Pfad 98"
              d="M667.568,138.451H597.628a2.281,2.281,0,1,1,0-4.562h69.94a2.281,2.281,0,0,1,0,4.562Z"
              transform="translate(626.605 222)" fill="#6c63ff"/>
        <path id="Pfad_99" data-name="Pfad 99"
              d="M608.568,147.465H597.628a2.281,2.281,0,1,1,0-4.562h10.94a2.281,2.281,0,1,1,0,4.562Z"
              transform="translate(626.605 222)" fill="#6c63ff"/>
        <path id="Pfad_100" data-name="Pfad 100"
              d="M627.945,156.478H597.628a2.281,2.281,0,1,1,0-4.562h30.318a2.281,2.281,0,1,1,0,4.562Z"
              transform="translate(626.605 222)" fill="#6c63ff"/>
        <path id="Pfad_129" data-name="Pfad 129"
              d="M832.79,353.98c-.118,64.692-54.231,117.042-120.863,116.927S591.373,418.256,591.491,353.564s54.23-117.042,120.863-116.927A122.19,122.19,0,0,1,797.7,271,115.113,115.113,0,0,1,832.79,353.98Z"
              transform="translate(509.811 553.29)" fill="#fff0c6"/>
        <path id="Pfad_131" data-name="Pfad 131"
              d="M832.79,353.98c-.118,64.692-54.231,117.042-120.863,116.927S429.616,290.756,429.734,226.064s212.25,84.49,296.036-117.48c32.024-.026,49.322,140.4,71.926,162.42A115.113,115.113,0,0,1,832.79,353.98Z"
              transform="translate(-94.283 387.066)" fill="#ccc"/>
        <g id="Gruppe_29" data-name="Gruppe 29" transform="translate(-2811.571 -929.741)">
            <path id="Pfad_132" data-name="Pfad 132"
                  d="M281.616,0C437.147,0,442.984-12.99,442.984,107.754s-5.836,329.5-161.368,329.5S0,339.372,0,218.628,126.084,0,281.616,0Z"
                  transform="matrix(0.914, 0.407, -0.407, 0.914, 3600.674, 1352.906)" fill="#5b8c95" opacity="0.144"/>
        </g>
        <g id="Gruppe_31" data-name="Gruppe 31" transform="translate(-2652.216 -1305.324)">
            <path id="Pfad_95" data-name="Pfad 95"
                  d="M285.524-219.14c64.5,65.952,413.122,102.527,313.4,222.851S286.741,234.229,286.741,284.731c0,87.677-51.521,32.776-135.21,32.776S0,246.431,0,158.754,133.408-374.688,285.524-219.14Z"
                  transform="matrix(0.914, 0.407, -0.407, 0.914, 2992.648, 851.035)" fill="#5b9591" opacity="0.144"/>
            <path id="Pfad_89" data-name="Pfad 89"
                  d="M291.8.6C437.218,13.4,630.025,207.951,722.45,435.132S771.919,836.1,626.505,823.295,114.646,637.074,22.221,409.892,146.391-12.208,291.8.6Z"
                  transform="translate(3254.599 963.16) rotate(-27)" fill="#f09250" opacity="0.205"/>
            <path id="Pfad_90" data-name="Pfad 90"
                  d="M229.826,51.753c104.774-17.665,388.523,92.7,341.512,286.863S295.359,798.89,190.585,816.555-30.677,579.046,16.334,384.882,125.052,69.419,229.826,51.753Z"
                  transform="translate(3094.438 989.201) rotate(20)" fill="#a04699" opacity="0.158"/>
            <path id="Pfad_132-2" data-name="Pfad 132"
                  d="M-135.618-116.822c89.4,0,304.932,261.472,447.316,22.958S340.968-16.984,405.557,15.3,713.3-122.876,713.3-72.163C713.3,48.582,189.949,701.8,34.417,701.8s-318.41-329.227-318.41-449.972S-291.15-116.822-135.618-116.822Z"
                  transform="matrix(0.914, 0.407, -0.407, 0.914, 3600.674, 1352.906)" fill="#8c955b" opacity="0.144"/>
        </g>
    </g>
    <g id="Gruppe_26" data-name="Gruppe 26" transform="translate(387.087 1314.393)" opacity="0.216">
        <path id="Pfad_101" data-name="Pfad 101"
              d="M97.436,194.868c-2.222,0-4.437-.075-6.581-.219-2.215-.147-4.434-.372-6.6-.669-.953-.128-1.815-.256-2.637-.391-2.44-.4-4.925-.9-7.381-1.5-.841-.2-1.665-.416-2.447-.634-.275-.072-.556-.15-.834-.228-1.187-.334-2.337-.681-3.412-1.031-.069-.019-.15-.047-.231-.072-.972-.312-1.984-.659-3.006-1.031-.862-.312-1.737-.644-2.675-1.012-1.953-.769-3.909-1.619-5.815-2.522-.794-.372-1.622-.781-2.534-1.244-.162-.081-.328-.166-.491-.25l-.187-.1a97.256,97.256,0,1,1,87.027,1.312c-.7.337-1.45.687-2.362,1.1l-.087.038c-.112.05-.225.1-.337.147-.681.3-1.375.6-2.059.881l-.309.131c-.194.081-.375.156-.556.225-2.322.937-4.662,1.781-6.956,2.5-.181.062-.366.119-.553.175l-.162.05c-1.906.591-3.912,1.141-5.953,1.631a97.584,97.584,0,0,1-22.861,2.7v.006h0Zm0-194.243A96.831,96.831,0,0,0,52.9,183.41l.187.1c.159.084.322.166.484.247.909.462,1.731.869,2.519,1.237,1.894.9,3.837,1.74,5.778,2.5.931.369,1.8.7,2.656,1.006,1.016.369,2.022.712,2.99,1.025.075.025.147.047.219.069,1.078.35,2.215.694,3.4,1.028.272.078.55.156.825.228.781.216,1.6.428,2.431.631,2.444.6,4.909,1.1,7.337,1.491.816.134,1.672.262,2.619.391,2.15.294,4.356.519,6.556.662,2.131.144,4.331.219,6.537.219a97.042,97.042,0,0,0,22.717-2.684c2.028-.487,4.018-1.034,5.918-1.622l.162-.05c.181-.056.359-.109.541-.172,2.284-.719,4.612-1.556,6.921-2.49.181-.072.356-.144.531-.216l.384-.159c.659-.272,1.328-.559,1.99-.853.116-.05.222-.1.331-.147l.087-.037c.906-.409,1.653-.756,2.347-1.091a95.629,95.629,0,0,0,9.112-5.009,96.682,96.682,0,0,0,8.377-5.837,97.763,97.763,0,0,0,27.238-33.21A96.833,96.833,0,0,0,97.436.625Z"
              fill="#dadbdc"/>
        <path id="Pfad_102" data-name="Pfad 102" d="M273.97,365.607l23.676,5.671L294.9,338.1l-20.911,1.731Z"
              transform="translate(-188.361 -232.453)" fill="#f3a3a6"/>
        <circle id="Ellipse_26" data-name="Ellipse 26" cx="23.048" cy="23.048" r="23.048"
                transform="translate(79.496 69.05)" fill="#f3a3a6"/>
        <path id="Pfad_103" data-name="Pfad 103"
              d="M249.986,454.851c-.184.063-.366.119-.55.175-.053.016-.106.034-.159.05q-2.929.909-5.937,1.628a97.132,97.132,0,0,1-22.789,2.693q-3.309,0-6.559-.219-3.323-.22-6.578-.666c-.881-.119-1.756-.247-2.628-.391q-3.726-.6-7.359-1.5-1.223-.3-2.437-.631c-.278-.072-.556-.15-.831-.228q-1.711-.483-3.4-1.028c-.075-.022-.153-.047-.228-.072q-1.509-.488-3-1.028-1.34-.483-2.665-1.009-2.948-1.162-5.8-2.512l.731-3.312,2.534-11.474,5.5-24.929L193.4,385.21l14.614.406h.006l.712.022,22.226.619,9.724.272,9.3,68.322h0Z"
              transform="translate(-123.115 -264.842)" fill="#dadbdc"/>
        <path id="Pfad_104" data-name="Pfad 104"
              d="M367.436,447.093a95.906,95.906,0,0,1-9.14,5.025c-.778.375-1.565.737-2.356,1.094-.141.062-.278.125-.419.184q-1.022.455-2.056.881h0l-.309.131c-.181.075-.362.15-.547.222q-3.408,1.378-6.937,2.5c-.184.063-.366.119-.55.175l-20.386-52.161-1.378-3.522-3.843-9.84-1.275-3.259,8.415.131,9.715.153A22.378,22.378,0,0,1,355,404.7l12.436,42.393Z"
              transform="translate(-218.798 -267.118)" fill="#dadbdc"/>
        <path id="Pfad_105" data-name="Pfad 105"
              d="M259.251,237.8c.819-.137,1.637-.278,2.456-.416.194-4.378.616-9.262,3.893-12.171,1.806-1.6,4.418-2.537,5.315-4.781.744-1.859.05-4.143,1.087-5.856,1.091-1.8,3.528-2.125,5.634-2.256a33.08,33.08,0,0,1,9.862.378c3.209.784,6.306,2.715,7.674,5.721a16.451,16.451,0,0,1,.909,2.909c.822,3.34,2.081,9.7,2.081,9.7s.244-1.316.937-3.875c1.415-2.025,3.143-3.893,3.975-6.218a13.241,13.241,0,0,0-.422-8.731,22.241,22.241,0,0,0-13.833-13.818c-6.44-2.047-12.53-3.206-17.342,1.537a24.161,24.161,0,0,1-2.747,2.622c-1.906,1.366-4.34,1.709-6.49,2.653a18.633,18.633,0,0,0-10.187,12.261c-1.078,5.112-.516,10.409.053,15.6.491,4.481,2.619,9.477,6.349,12.008q.23-3.44.459-6.878l.331-.391h0Z"
              transform="translate(-172.874 -135.171)" fill="#2f2e43"/>
        <path id="Pfad_106" data-name="Pfad 106"
              d="M153.313,386.48l-.225.369-6.293,10.287-9.33,15.261-1.89,3.09-6.893,11.274a77.349,77.349,0,0,1-6.012,7.181l-.012.012c-1.372,1.462-2.944,3.04-4.684,4.625a.152.152,0,0,1-.041.037,66.409,66.409,0,0,1-7.068,5.65c-1.056.728-2.144,1.422-3.256,2.072-.228-.112-.453-.231-.678-.347A97.537,97.537,0,0,1,78.8,424.008c8.252-13.18,24.582-27.96,35.1-36.763a24.526,24.526,0,0,1,21.454-5.056l3.718.887.719.172,13.518,3.231Z"
              transform="translate(-54.177 -262.303)" fill="#dadbdc"/>
        <path id="Pfad_107" data-name="Pfad 107"
              d="M343.075,384.879c-4.053-1.459-14.78-1.465-19.592.159a2.012,2.012,0,0,0-1.337,2.237l.191,1.153a4.5,4.5,0,0,1-1.216-.359,6.6,6.6,0,0,0-5.687-.1A5.939,5.939,0,0,0,312.325,392a7,7,0,0,0,1.431,6.465l3.159,2.965a54.5,54.5,0,0,0,8.618,6.6l.063.038L324.47,401.3a2.264,2.264,0,0,1-3.159.806c-2.756-1.706-7.259-5.125-6.712-9.006.381-2.706,1.884-3.281,3.328-3.159a4.559,4.559,0,0,1,3.715,2.619,1.85,1.85,0,0,0,.775.825l.812.444,2.381,14.346a2.029,2.029,0,0,0,1.1,1.487c5.6,2.747,11.643,1.322,13.733.681a2.015,2.015,0,0,0,1.144-.894l.45-.747a2.031,2.031,0,0,0,.281-.844l2.078-20.88a2.022,2.022,0,0,0-1.328-2.1Z"
              transform="translate(-214.58 -263.874)" fill="#6c63ff"/>
        <ellipse id="Ellipse_27" data-name="Ellipse 27" cx="9.415" cy="0.887" rx="9.415" ry="0.887"
                 transform="translate(109.378 121.227)" fill="#dedfe0"/>
        <path id="uuid-add59a10-2c6d-45b5-a06d-26741c0f8cf5"
              d="M241.444,413.924c5.109-3.909,7.131-9.787,4.515-13.127s-8.871-2.881-13.983,1.031a15.523,15.523,0,0,0-4.8,5.887L205.75,424.555l8.506,10.174,20.217-17.683a15.74,15.74,0,0,0,6.968-3.122Z"
              transform="translate(-141.458 -274.023)" fill="#f3a3a6"/>
        <path id="Pfad_108" data-name="Pfad 108" d="M188.122,461.745l-8.474-14.9L148.81,461.351l17.255,22.179Z"
              transform="translate(-102.311 -307.214)" fill="#dadbdc"/>
        <path id="Pfad_109" data-name="Pfad 109"
              d="M167.789,461.91s-22.479,16.458-21.648,16.367,11.915-6.187,11.915-6.187l9.734-10.18Z"
              transform="translate(-100.46 -317.575)" fill="#272223" opacity="0.1" style="isolation: isolate"/>
    </g>
    <g id="Gruppe_27" data-name="Gruppe 27" transform="translate(463.643 545.753)" opacity="0.216">
        <path id="Pfad_110" data-name="Pfad 110"
              d="M101.4,202.8c-2.312,0-4.614-.078-6.848-.228-2.3-.153-4.614-.387-6.868-.7-.992-.133-1.889-.267-2.745-.406-2.54-.413-5.125-.937-7.684-1.561-.878-.211-1.733-.433-2.546-.66-.286-.075-.579-.156-.868-.237-1.236-.348-2.432-.709-3.551-1.073-.072-.02-.156-.049-.241-.075-1.008-.325-2.062-.686-3.128-1.073-.9-.325-1.811-.67-2.784-1.054A101.43,101.43,0,0,1,29.7,29.7a101.4,101.4,0,0,1,173.1,71.7,100.373,100.373,0,0,1-10.647,45.279,101.84,101.84,0,0,1-46.844,46.141c-.732.354-1.515.715-2.458,1.141l-.1.046c-.114.052-.224.1-.338.15-.709.315-1.431.624-2.143.917l-.322.137c-.192.081-.384.159-.579.234-2.615,1.057-5.3,2.016-7.98,2.839-1.99.618-4.075,1.19-6.2,1.7a101.556,101.556,0,0,1-23.791,2.813h0ZM101.4.66A100.757,100.757,0,0,0,15.729,154.439a100.861,100.861,0,0,0,48.655,40.688c.966.384,1.87.725,2.764,1.047,1.063.384,2.107.741,3.112,1.067.078.026.153.049.228.072,1.119.364,2.306.722,3.535,1.07.286.081.572.163.858.237.81.224,1.658.446,2.53.657,2.543.621,5.109,1.141,7.635,1.551.849.14,1.74.273,2.725.406,2.237.306,4.533.54,6.822.689,2.218.15,4.507.228,6.8.228a101.011,101.011,0,0,0,23.641-2.793c2.11-.507,4.182-1.076,6.159-1.688,2.663-.819,5.333-1.769,7.931-2.823.2-.075.38-.153.566-.231l.384-.163c.686-.283,1.382-.582,2.071-.888.117-.049.224-.1.332-.146l.1-.046c.937-.423,1.714-.784,2.442-1.135a100.624,100.624,0,0,0,18.2-11.287,101.741,101.741,0,0,0,28.347-34.561A100.774,100.774,0,0,0,101.4.65h0V.66Z"
              fill="#dddedf"/>
        <path id="Pfad_111" data-name="Pfad 111"
              d="M242.4,176.863s-17.811,2.01-18.959,29.589c-.956,22.981-2.914,35.79,6.436,40.584a14.141,14.141,0,0,0,10.842.693l38.168-12.549s.576-41.367-12.64-51.422-23.843-6.894-23.843-6.894h0Z"
              transform="translate(-150.205 -119.031)" fill="#2f2e41"/>
        <path id="Pfad_112" data-name="Pfad 112" d="M308.116,328.273,288.8,334.624v-27.8h17.524Z"
              transform="translate(-194.885 -207.045)" fill="#f6a6a9"/>
        <path id="Pfad_113" data-name="Pfad 113"
              d="M272.609,437.36q-3.9,1.58-7.957,2.832-3.049.946-6.179,1.694a101.083,101.083,0,0,1-23.716,2.8q-3.444,0-6.826-.228-3.458-.229-6.845-.693c-.917-.124-1.828-.257-2.735-.406q-3.878-.629-7.658-1.558-1.273-.307-2.536-.657c-.289-.075-.579-.156-.865-.237q-1.78-.5-3.538-1.07c-.078-.023-.159-.049-.237-.075q-1.571-.507-3.122-1.07-1.4-.5-2.774-1.05L217.687,371.6l.836-2.748,2.966-9.759.023-.078.023-.072H256.58l.234,1.141,5.746,28.109,4.14,20.259,4.071,19.911,1.675,8.195.163.8h0Z"
              transform="translate(-133.356 -242.217)" fill="#dddedf"/>
        <path id="Pfad_114" data-name="Pfad 114"
              d="M207.628,358.963l-2.358,9.765-.328,1.369-.172.712-10.458,43.351-6.455,26.757q-1.78-.5-3.538-1.07c-.078-.023-.159-.049-.237-.075q-1.571-.507-3.122-1.07-1.4-.5-2.774-1.05a100.214,100.214,0,0,1-9.365-4.266c6.774-33.527,13.573-66.492,14.679-69.252.485-1.213,1.841-2.143,3.678-2.858.53-.208,1.1-.4,1.7-.569a60.561,60.561,0,0,1,13.157-1.684h.039c1.574-.055,2.936-.072,3.919-.072s1.632.016,1.632.016h0Z"
              transform="translate(-113.921 -242.223)" fill="#dddedf"/>
        <circle id="Ellipse_28" data-name="Ellipse 28" cx="19.248" cy="19.248" r="19.248"
                transform="translate(77.057 68.976)" fill="#f6a6a9"/>
        <path id="Pfad_115" data-name="Pfad 115"
              d="M244.687,199.93s-10.591,43.006,1.187,63.116l-16.591-3.525s-6.429-47.074,6.5-55.63l8.907-3.961Z"
              transform="translate(-153.644 -134.915)" fill="#2f2e41"/>
        <path id="Pfad_116" data-name="Pfad 116"
              d="M242.95,551.084c-.917-.124-1.828-.257-2.735-.406q-3.878-.629-7.658-1.558-1.273-.307-2.536-.657l1.083-8.305,2.891-22.188,1.3,4.806,1.2,4.426,6.458,23.882h0Z"
              transform="translate(-155.22 -349.532)" fill="#272223" opacity="0.1" style="isolation: isolate"/>
        <path id="Pfad_117" data-name="Pfad 117"
              d="M361.85,500.209q-1.063.473-2.14.917h0l-.322.137c-.189.078-.377.156-.569.231q-3.9,1.58-7.957,2.832h0a40.154,40.154,0,0,1-14.221-18.2l-1.522-3.906L325.37,453.98l21.6,22.662,3.948,6.25,6.065,9.6,4.871,7.714h0Z"
              transform="translate(-219.563 -306.35)" fill="#272223" opacity="0.1" style="isolation: isolate"/>
        <path id="Pfad_118" data-name="Pfad 118"
              d="M376.947,421.782a100.949,100.949,0,0,1-18.256,11.323c-.81.39-1.629.767-2.452,1.138-.146.065-.289.13-.436.192q-1.063.473-2.14.917h0c-.354-.137-.706-.283-1.054-.436a32.176,32.176,0,0,1-9.567-6.709,58.829,58.829,0,0,1-9.3-12.426c-1.2-2.078-2.231-4.1-3.106-5.938l-.013-.029a77.444,77.444,0,0,1-3.525-8.653l-3.138-12.887-.862-3.535h0l-4.9-20.123L316.41,357.3l2.66-.117,7.268-.319,8.016-.354a24.23,24.23,0,0,1,5.382,1.024,24.616,24.616,0,0,1,13.58,10.377c8.735,13.811,22.721,38.171,23.635,53.871Z"
              transform="translate(-213.517 -240.577)" fill="#dddedf"/>
        <path id="Pfad_119" data-name="Pfad 119"
              d="M218.848,329.043c4.218-1.519,15.381-1.525,20.389.166a2.093,2.093,0,0,1,1.392,2.328l-.2,1.2a4.678,4.678,0,0,0,1.265-.374,6.872,6.872,0,0,1,5.918-.1,6.18,6.18,0,0,1,3.236,4.195,7.279,7.279,0,0,1-1.489,6.728l-3.288,3.086a56.716,56.716,0,0,1-8.969,6.868l-.065.039,1.171-7.044a2.356,2.356,0,0,0,3.288.839c2.868-1.776,7.554-5.333,6.985-9.372-.4-2.816-1.961-3.414-3.463-3.288a4.744,4.744,0,0,0-3.867,2.725,1.925,1.925,0,0,1-.806.858l-.845.462-2.478,14.929a2.112,2.112,0,0,1-1.148,1.548c-5.827,2.858-12.117,1.376-14.292.709a2.1,2.1,0,0,1-1.19-.93l-.468-.777a2.113,2.113,0,0,1-.293-.878l-2.163-21.729a2.1,2.1,0,0,1,1.382-2.185Z"
              transform="translate(-146.743 -221.285)" fill="#6c63ff"/>
        <path id="Pfad_120" data-name="Pfad 120"
              d="M242.236,333c0,.511-4.387.924-9.8.924s-9.8-.413-9.8-.924,4.387-.924,9.8-.924S242.236,332.493,242.236,333Z"
              transform="translate(-150.24 -224.091)" fill="#dedfe0"/>
        <path id="uuid-bd712efc-6e19-43e4-bd5b-5d940076ad78"
              d="M291.544,366.8c-3.688-5.3-3.821-11.534-.3-13.928s9.362-.039,13.05,5.265a15.605,15.605,0,0,1,2.79,7.1l15.323,22.656-11.245,7.122-13.912-23.089a15.807,15.807,0,0,1-5.707-5.118h0Z"
              transform="translate(-194.81 -237.487)" fill="#f6a6a9"/>
        <path id="Pfad_121" data-name="Pfad 121" d="M325.36,429.8l12.663-11.655,25.036,23.313-23.284,15.915Z"
              transform="translate(-219.556 -282.172)" fill="#dddedf"/>
        <path id="Pfad_122" data-name="Pfad 122" d="M422.789,483.78l1,7.645-6.634-7.645v-7.71Z"
              transform="translate(-281.497 -321.257)" fill="#272223" opacity="0.1" style="isolation: isolate"/>
    </g>
    <g id="Gruppe_28" data-name="Gruppe 28" transform="translate(923.087 1452.301)" opacity="0.216">
        <path id="Pfad_123" data-name="Pfad 123" d="M274.67,237.594H246.19V199.05l24.626,13.491Z"
              transform="translate(-193.472 -156.426)" fill="#2f2e41"/>
        <circle id="Ellipse_29" data-name="Ellipse 29" cx="18.49" cy="18.49" r="18.49"
                transform="translate(39.489 37.384)" fill="#ffb6b6"/>
        <path id="Pfad_124" data-name="Pfad 124"
              d="M207.83,317.613l-.835-8.444,16.681-3.119,9.85,23.983-17.131,19.7L204.19,325.75Z"
              transform="translate(-160.466 -240.514)" fill="#ffb6b6"/>
        <path id="Pfad_125" data-name="Pfad 125"
              d="M172.463,374.861c-.208.216-.42.43-.632.642q-1.009,1.009-2.058,1.959a56.975,56.975,0,0,1-73.926,2.15.106.106,0,0,1-.017-.015c-.306-.246-.608-.5-.91-.752.054-.154.111-.306.169-.456a26.2,26.2,0,0,1,13.54-14.4,20.112,20.112,0,0,1,3.236-1.225l4.565-8.223,3.214,6,2.368,4.42,9.717,18.131,8.383-20.874,2.6-6.471.666-1.657,3.167,2.465,3,2.332,6.036,1.332,4.9,1.081,6.651,1.469c2.69,2.191,4.326,6.358,5.24,11.535C172.4,374.488,172.433,374.675,172.463,374.861Z"
              transform="translate(-74.594 -278.267)" fill="#6c63ff"/>
        <path id="Pfad_126" data-name="Pfad 126"
              d="M224.473,137.8a13.951,13.951,0,0,1,22.558-1.968c1.712,1.988,2.835,4.423,4.5,6.447,3.592,4.357,9.716,6.9,11.285,12.328.685,2.367.343,4.894,0,7.333l-.891,6.273a9.527,9.527,0,0,0,.157,4.868c.716,1.79,2.429,2.963,3.536,4.541a7.829,7.829,0,0,1-.321,9.165c-.9,1.1-2.086,1.938-3.026,3.006a4.346,4.346,0,0,0-1.244,3.9c.754,2.619,4.862,3.247,5.312,5.935A3.389,3.389,0,0,1,264.379,203a7.156,7.156,0,0,1-4.091.479,16.807,16.807,0,0,1-13.171-23.858c1.857-3.934,5.307-7.41,5.27-11.76-.02-2.37-1.107-4.583-2.17-6.7l-6.526-13.006c-1.165-2.322-2.518-4.825-4.917-5.822-1.854-.771-3.958-.472-5.941-.157s-4.084.622-5.944-.135-3.265-3.009-2.379-4.811"
              transform="translate(-176.22 -102.943)" fill="#2f2e41"/>
        <path id="Pfad_127" data-name="Pfad 127"
              d="M161.89,162.156c-3.572-1.176-7.58.712-10,3.592s-3.592,6.575-4.709,10.166l-1.92,6.171-1.807,5.8c-.708,2.276-1.422,4.694-.841,7.006.42,1.671,1.5,3.189,1.525,4.912.024,1.8-1.1,3.38-2.091,4.885s-1.915,3.293-1.444,5.03c.716,2.643,4.39,4.1,4.189,6.826-.067.911-.594,1.754-.585,2.668a3.106,3.106,0,0,0,1.989,2.63,8.2,8.2,0,0,0,3.428.468,53.094,53.094,0,0,0,10.606-1.262,10.252,10.252,0,0,0,3.816-1.464,3.987,3.987,0,0,0,1.8-3.49c-.226-2.126-2.512-3.332-3.666-5.132-1.133-1.768-1.107-4.009-1.6-6.051-.671-2.807-2.33-5.258-3.575-7.861a28.911,28.911,0,0,1,4.007-30.517,6.693,6.693,0,0,0,1.564-2.387,1.989,1.989,0,0,0-.979-2.423"
              transform="translate(-110.397 -127.096)" fill="#2f2e41"/>
        <path id="Pfad_128" data-name="Pfad 128"
              d="M97.237,16.683A56.96,56.96,0,0,0,0,56.96,56.527,56.527,0,0,0,13.981,94.342q1.294,1.487,2.7,2.9c.221.221.443.441.668.655q.9.87,1.831,1.7.565.5,1.143.989c.3.255.6.505.91.752a.107.107,0,0,0,.017.015A56.975,56.975,0,0,0,95.179,99.2q1.05-.951,2.058-1.959c.212-.212.424-.426.632-.642q.867-.893,1.687-1.816a56.963,56.963,0,0,0-2.319-78.1Zm2.18,77.562c-.535.608-1.084,1.208-1.645,1.792Q96.461,97.4,95.065,98.68c-.353.325-.711.642-1.073.957a56.554,56.554,0,0,1-12.111,8.058q-2.309,1.14-4.732,2.071A56.359,56.359,0,0,1,30.2,106.746q-.511-.276-1.015-.561a56.179,56.179,0,0,1-5.122-3.278q-1.84-1.32-3.567-2.784c-.4-.34-.8-.685-1.193-1.039q-.957-.851-1.874-1.752-1.735-1.7-3.317-3.54a56.531,56.531,0,1,1,85.305.452Z"
              transform="translate(0 0)" fill="none"/>
    </g>
    <g id="Gruppe_30" data-name="Gruppe 30" transform="translate(1000.283 1255.523)" opacity="0.216">
        <path id="Pfad_110-2" data-name="Pfad 110"
              d="M101.4,202.8c-2.312,0-4.614-.078-6.848-.228-2.3-.153-4.614-.387-6.868-.7-.992-.133-1.889-.267-2.745-.406-2.54-.413-5.125-.937-7.684-1.561-.878-.211-1.733-.433-2.546-.66-.286-.075-.579-.156-.868-.237-1.236-.348-2.432-.709-3.551-1.073-.072-.02-.156-.049-.241-.075-1.008-.325-2.062-.686-3.128-1.073-.9-.325-1.811-.67-2.784-1.054A101.43,101.43,0,0,1,29.7,29.7a101.4,101.4,0,0,1,173.1,71.7,100.373,100.373,0,0,1-10.647,45.279,101.84,101.84,0,0,1-46.844,46.141c-.732.354-1.515.715-2.458,1.141l-.1.046c-.114.052-.224.1-.338.15-.709.315-1.431.624-2.143.917l-.322.137c-.192.081-.384.159-.579.234-2.615,1.057-5.3,2.016-7.98,2.839-1.99.618-4.075,1.19-6.2,1.7a101.556,101.556,0,0,1-23.791,2.813h0ZM101.4.66A100.757,100.757,0,0,0,15.729,154.439a100.861,100.861,0,0,0,48.655,40.688c.966.384,1.87.725,2.764,1.047,1.063.384,2.107.741,3.112,1.067.078.026.153.049.228.072,1.119.364,2.306.722,3.535,1.07.286.081.572.163.858.237.81.224,1.658.446,2.53.657,2.543.621,5.109,1.141,7.635,1.551.849.14,1.74.273,2.725.406,2.237.306,4.533.54,6.822.689,2.218.15,4.507.228,6.8.228a101.011,101.011,0,0,0,23.641-2.793c2.11-.507,4.182-1.076,6.159-1.688,2.663-.819,5.333-1.769,7.931-2.823.2-.075.38-.153.566-.231l.384-.163c.686-.283,1.382-.582,2.071-.888.117-.049.224-.1.332-.146l.1-.046c.937-.423,1.714-.784,2.442-1.135a100.624,100.624,0,0,0,18.2-11.287,101.741,101.741,0,0,0,28.347-34.561A100.774,100.774,0,0,0,101.4.65h0V.66Z"
              fill="#dddedf"/>
        <path id="Pfad_111-2" data-name="Pfad 111"
              d="M242.4,176.863s-17.811,2.01-18.959,29.589c-.956,22.981-2.914,35.79,6.436,40.584a14.141,14.141,0,0,0,10.842.693l38.168-12.549s.576-41.367-12.64-51.422-23.843-6.894-23.843-6.894h0Z"
              transform="translate(-150.205 -119.031)" fill="#2f2e41"/>
        <path id="Pfad_112-2" data-name="Pfad 112" d="M308.116,328.273,288.8,334.624v-27.8h17.524Z"
              transform="translate(-194.885 -207.045)" fill="#f6a6a9"/>
        <path id="Pfad_113-2" data-name="Pfad 113"
              d="M272.609,437.36q-3.9,1.58-7.957,2.832-3.049.946-6.179,1.694a101.083,101.083,0,0,1-23.716,2.8q-3.444,0-6.826-.228-3.458-.229-6.845-.693c-.917-.124-1.828-.257-2.735-.406q-3.878-.629-7.658-1.558-1.273-.307-2.536-.657c-.289-.075-.579-.156-.865-.237q-1.78-.5-3.538-1.07c-.078-.023-.159-.049-.237-.075q-1.571-.507-3.122-1.07-1.4-.5-2.774-1.05L217.687,371.6l.836-2.748,2.966-9.759.023-.078.023-.072H256.58l.234,1.141,5.746,28.109,4.14,20.259,4.071,19.911,1.675,8.195.163.8h0Z"
              transform="translate(-133.356 -242.217)" fill="#dddedf"/>
        <path id="Pfad_114-2" data-name="Pfad 114"
              d="M207.628,358.963l-2.358,9.765-.328,1.369-.172.712-10.458,43.351-6.455,26.757q-1.78-.5-3.538-1.07c-.078-.023-.159-.049-.237-.075q-1.571-.507-3.122-1.07-1.4-.5-2.774-1.05a100.214,100.214,0,0,1-9.365-4.266c6.774-33.527,13.573-66.492,14.679-69.252.485-1.213,1.841-2.143,3.678-2.858.53-.208,1.1-.4,1.7-.569a60.561,60.561,0,0,1,13.157-1.684h.039c1.574-.055,2.936-.072,3.919-.072s1.632.016,1.632.016h0Z"
              transform="translate(-113.921 -242.223)" fill="#dddedf"/>
        <circle id="Ellipse_28-2" data-name="Ellipse 28" cx="19.248" cy="19.248" r="19.248"
                transform="translate(77.057 68.976)" fill="#f6a6a9"/>
        <path id="Pfad_115-2" data-name="Pfad 115"
              d="M244.687,199.93s-10.591,43.006,1.187,63.116l-16.591-3.525s-6.429-47.074,6.5-55.63l8.907-3.961Z"
              transform="translate(-153.644 -134.915)" fill="#2f2e41"/>
        <path id="Pfad_116-2" data-name="Pfad 116"
              d="M242.95,551.084c-.917-.124-1.828-.257-2.735-.406q-3.878-.629-7.658-1.558-1.273-.307-2.536-.657l1.083-8.305,2.891-22.188,1.3,4.806,1.2,4.426,6.458,23.882h0Z"
              transform="translate(-155.22 -349.532)" fill="#272223" opacity="0.1" style="isolation: isolate"/>
        <path id="Pfad_117-2" data-name="Pfad 117"
              d="M361.85,500.209q-1.063.473-2.14.917h0l-.322.137c-.189.078-.377.156-.569.231q-3.9,1.58-7.957,2.832h0a40.154,40.154,0,0,1-14.221-18.2l-1.522-3.906L325.37,453.98l21.6,22.662,3.948,6.25,6.065,9.6,4.871,7.714h0Z"
              transform="translate(-219.563 -306.35)" fill="#272223" opacity="0.1" style="isolation: isolate"/>
        <path id="Pfad_118-2" data-name="Pfad 118"
              d="M376.947,421.782a100.949,100.949,0,0,1-18.256,11.323c-.81.39-1.629.767-2.452,1.138-.146.065-.289.13-.436.192q-1.063.473-2.14.917h0c-.354-.137-.706-.283-1.054-.436a32.176,32.176,0,0,1-9.567-6.709,58.829,58.829,0,0,1-9.3-12.426c-1.2-2.078-2.231-4.1-3.106-5.938l-.013-.029a77.444,77.444,0,0,1-3.525-8.653l-3.138-12.887-.862-3.535h0l-4.9-20.123L316.41,357.3l2.66-.117,7.268-.319,8.016-.354a24.23,24.23,0,0,1,5.382,1.024,24.616,24.616,0,0,1,13.58,10.377c8.735,13.811,22.721,38.171,23.635,53.871Z"
              transform="translate(-213.517 -240.577)" fill="#dddedf"/>
        <path id="Pfad_119-2" data-name="Pfad 119"
              d="M218.848,329.043c4.218-1.519,15.381-1.525,20.389.166a2.093,2.093,0,0,1,1.392,2.328l-.2,1.2a4.678,4.678,0,0,0,1.265-.374,6.872,6.872,0,0,1,5.918-.1,6.18,6.18,0,0,1,3.236,4.195,7.279,7.279,0,0,1-1.489,6.728l-3.288,3.086a56.716,56.716,0,0,1-8.969,6.868l-.065.039,1.171-7.044a2.356,2.356,0,0,0,3.288.839c2.868-1.776,7.554-5.333,6.985-9.372-.4-2.816-1.961-3.414-3.463-3.288a4.744,4.744,0,0,0-3.867,2.725,1.925,1.925,0,0,1-.806.858l-.845.462-2.478,14.929a2.112,2.112,0,0,1-1.148,1.548c-5.827,2.858-12.117,1.376-14.292.709a2.1,2.1,0,0,1-1.19-.93l-.468-.777a2.113,2.113,0,0,1-.293-.878l-2.163-21.729a2.1,2.1,0,0,1,1.382-2.185Z"
              transform="translate(-146.743 -221.285)" fill="#6c63ff"/>
        <path id="Pfad_120-2" data-name="Pfad 120"
              d="M242.236,333c0,.511-4.387.924-9.8.924s-9.8-.413-9.8-.924,4.387-.924,9.8-.924S242.236,332.493,242.236,333Z"
              transform="translate(-150.24 -224.091)" fill="#dedfe0"/>
        <path id="uuid-bd712efc-6e19-43e4-bd5b-5d940076ad78-2" data-name="uuid-bd712efc-6e19-43e4-bd5b-5d940076ad78"
              d="M291.544,366.8c-3.688-5.3-3.821-11.534-.3-13.928s9.362-.039,13.05,5.265a15.605,15.605,0,0,1,2.79,7.1l15.323,22.656-11.245,7.122-13.912-23.089a15.807,15.807,0,0,1-5.707-5.118h0Z"
              transform="translate(-194.81 -237.487)" fill="#f6a6a9"/>
        <path id="Pfad_121-2" data-name="Pfad 121" d="M325.36,429.8l12.663-11.655,25.036,23.313-23.284,15.915Z"
              transform="translate(-219.556 -282.172)" fill="#dddedf"/>
        <path id="Pfad_122-2" data-name="Pfad 122" d="M422.789,483.78l1,7.645-6.634-7.645v-7.71Z"
              transform="translate(-281.497 -321.257)" fill="#272223" opacity="0.1" style="isolation: isolate"/>
    </g>
    <circle id="Ellipse_30" data-name="Ellipse 30" cx="21.506" cy="21.506" r="21.506"
            transform="translate(1150.522 1307.066)" fill="#3f3d56" opacity="0.216"/>
    <path id="Pfad_133" data-name="Pfad 133"
          d="M683.43,187.387H581.765a10.288,10.288,0,0,1-10.277-10.277V114.494a10.288,10.288,0,0,1,10.277-10.277H683.43a10.288,10.288,0,0,1,10.277,10.277V177.11a10.288,10.288,0,0,1-10.277,10.277Z"
          transform="translate(602.692 1115.268)" fill="#e6e6e6" opacity="0.216"/>
    <path id="Pfad_134" data-name="Pfad 134"
          d="M643.037,179.322H588.912a9.636,9.636,0,0,1-9.625-9.624v-47.79a9.636,9.636,0,0,1,9.625-9.625h87.373a9.635,9.635,0,0,1,9.625,9.625v14.543a42.92,42.92,0,0,1-42.872,42.871Z"
          transform="translate(602.692 1115.268)" fill="#fff" opacity="0.216"/>
    <path id="Pfad_135" data-name="Pfad 135"
          d="M667.568,138.451H597.628a2.281,2.281,0,1,1,0-4.562h69.94a2.281,2.281,0,0,1,0,4.562Z"
          transform="translate(602.692 1115.268)" fill="#6c63ff" opacity="0.216"/>
    <path id="Pfad_136" data-name="Pfad 136"
          d="M608.568,147.465H597.628a2.281,2.281,0,1,1,0-4.562h10.94a2.281,2.281,0,1,1,0,4.562Z"
          transform="translate(602.692 1115.268)" fill="#6c63ff" opacity="0.216"/>
    <path id="Pfad_137" data-name="Pfad 137"
          d="M627.945,156.478H597.628a2.281,2.281,0,1,1,0-4.562h30.318a2.281,2.281,0,1,1,0,4.562Z"
          transform="translate(602.692 1115.268)" fill="#6c63ff" opacity="0.216"/>
    <circle id="Ellipse_31" data-name="Ellipse 31" cx="21.506" cy="21.506" r="21.506"
            transform="translate(891.129 1450.945)" fill="#3f3d56" opacity="0.216"/>
    <circle id="Ellipse_32" data-name="Ellipse 32" cx="21.506" cy="21.506" r="21.506"
            transform="translate(891.129 1450.945)" fill="#3f3d56" opacity="0.216"/>
    <path id="Pfad_143" data-name="Pfad 143"
          d="M683.43,187.387H581.765a10.288,10.288,0,0,1-10.277-10.277V114.494a10.288,10.288,0,0,1,10.277-10.277H683.43a10.288,10.288,0,0,1,10.277,10.277V177.11a10.288,10.288,0,0,1-10.277,10.277Z"
          transform="translate(207.3 1263.558)" fill="#e6e6e6" opacity="0.216"/>
    <path id="Pfad_144" data-name="Pfad 144"
          d="M643.037,179.322H588.912a9.636,9.636,0,0,1-9.625-9.624v-47.79a9.636,9.636,0,0,1,9.625-9.625h87.373a9.635,9.635,0,0,1,9.625,9.625v14.543a42.92,42.92,0,0,1-42.872,42.871Z"
          transform="translate(207.3 1263.558)" fill="#fff" opacity="0.216"/>
    <path id="Pfad_145" data-name="Pfad 145"
          d="M667.568,138.451H597.628a2.281,2.281,0,1,1,0-4.562h69.94a2.281,2.281,0,0,1,0,4.562Z"
          transform="translate(207.3 1263.558)" fill="#6c63ff" opacity="0.216"/>
    <path id="Pfad_146" data-name="Pfad 146"
          d="M608.568,147.465H597.628a2.281,2.281,0,1,1,0-4.562h10.94a2.281,2.281,0,1,1,0,4.562Z"
          transform="translate(207.3 1263.558)" fill="#6c63ff" opacity="0.216"/>
    <path id="Pfad_147" data-name="Pfad 147"
          d="M627.945,156.478H597.628a2.281,2.281,0,1,1,0-4.562h30.318a2.281,2.281,0,1,1,0,4.562Z"
          transform="translate(207.3 1263.558)" fill="#6c63ff" opacity="0.216"/>
    <circle id="Ellipse_33" data-name="Ellipse 33" cx="21.506" cy="21.506" r="21.506"
            transform="translate(509.777 1390.059)" fill="#3f3d56" opacity="0.216"/>
    <path id="Pfad_148" data-name="Pfad 148"
          d="M683.43,187.387H581.765a10.288,10.288,0,0,1-10.277-10.277V114.494a10.288,10.288,0,0,1,10.277-10.277H683.43a10.288,10.288,0,0,1,10.277,10.277V177.11a10.288,10.288,0,0,1-10.277,10.277Z"
          transform="translate(-38.052 1198.261)" fill="#e6e6e6" opacity="0.216"/>
    <path id="Pfad_149" data-name="Pfad 149"
          d="M643.037,179.322H588.912a9.636,9.636,0,0,1-9.625-9.624v-47.79a9.636,9.636,0,0,1,9.625-9.625h87.373a9.635,9.635,0,0,1,9.625,9.625v14.543a42.92,42.92,0,0,1-42.872,42.871Z"
          transform="translate(-38.052 1198.261)" fill="#fff" opacity="0.216"/>
    <path id="Pfad_150" data-name="Pfad 150"
          d="M667.568,138.451H597.628a2.281,2.281,0,1,1,0-4.562h69.94a2.281,2.281,0,0,1,0,4.562Z"
          transform="translate(-38.052 1198.261)" fill="#6c63ff" opacity="0.216"/>
    <path id="Pfad_151" data-name="Pfad 151"
          d="M608.568,147.465H597.628a2.281,2.281,0,1,1,0-4.562h10.94a2.281,2.281,0,1,1,0,4.562Z"
          transform="translate(-38.052 1198.261)" fill="#6c63ff" opacity="0.216"/>
    <path id="Pfad_152" data-name="Pfad 152"
          d="M627.945,156.478H597.628a2.281,2.281,0,1,1,0-4.562h30.318a2.281,2.281,0,1,1,0,4.562Z"
          transform="translate(-38.052 1198.261)" fill="#6c63ff" opacity="0.216"/>
    <g id="Gruppe_32" data-name="Gruppe 32" transform="translate(725.185 363.778)" opacity="0.216">
        <path id="Pfad_153" data-name="Pfad 153"
              d="M891.457,564.133H342.148a26.516,26.516,0,0,1-26.487-26.487V329.208a26.517,26.517,0,0,1,26.487-26.487H891.457a26.517,26.517,0,0,1,26.487,26.487V537.646a26.517,26.517,0,0,1-26.487,26.487Z"
              transform="translate(-238.774 -267.902)" fill="#fff"/>
        <path id="Pfad_154" data-name="Pfad 154"
              d="M891.457,564.133H342.148a26.516,26.516,0,0,1-26.487-26.487V329.208a26.517,26.517,0,0,1,26.487-26.487H891.457a26.517,26.517,0,0,1,26.487,26.487V537.646a26.517,26.517,0,0,1-26.487,26.487ZM342.148,305.025a24.183,24.183,0,0,0-24.183,24.183V537.646a24.183,24.183,0,0,0,24.183,24.183H891.457a24.183,24.183,0,0,0,24.183-24.183V459.054A154.029,154.029,0,0,0,761.612,305.025Z"
              transform="translate(-238.774 -267.902)" fill="#e6e6e6"/>
        <ellipse id="Ellipse_34" data-name="Ellipse 34" cx="2.825" cy="4.061" rx="2.825" ry="4.061"
                 transform="matrix(0.144, -0.99, 0.99, 0.144, 51.466, 342.23)" fill="#fff"/>
        <ellipse id="Ellipse_35" data-name="Ellipse 35" cx="2.825" cy="4.061" rx="2.825" ry="4.061"
                 transform="matrix(0.144, -0.99, 0.99, 0.144, 77.891, 339.652)" fill="#3f3d56"/>
        <ellipse id="Ellipse_36" data-name="Ellipse 36" cx="2.825" cy="4.061" rx="2.825" ry="4.061"
                 transform="matrix(0.144, -0.99, 0.99, 0.144, 44.23, 320.837)" fill="#ff6584"/>
        <ellipse id="Ellipse_37" data-name="Ellipse 37" cx="2.567" cy="1.785" rx="2.567" ry="1.785"
                 transform="matrix(0.008, -1, 1, 0.008, 37.6, 312.987)" fill="#e6e6e6"/>
        <ellipse id="Ellipse_38" data-name="Ellipse 38" cx="2.567" cy="1.785" rx="2.567" ry="1.785"
                 transform="matrix(0.008, -1, 1, 0.008, 33.706, 296.664)" fill="#3f3d56"/>
        <ellipse id="Ellipse_39" data-name="Ellipse 39" cx="2.567" cy="1.785" rx="2.567" ry="1.785"
                 transform="matrix(0.008, -1, 1, 0.008, 63.987, 325.39)" fill="#e6e6e6"/>
        <ellipse id="Ellipse_40" data-name="Ellipse 40" cx="2.567" cy="1.785" rx="2.567" ry="1.785"
                 transform="matrix(0.008, -1, 1, 0.008, 51.217, 331.766)" fill="#ff6584"/>
        <ellipse id="Ellipse_41" data-name="Ellipse 41" cx="2.567" cy="1.785" rx="2.567" ry="1.785"
                 transform="matrix(0.008, -1, 1, 0.008, 68.994, 343.551)" fill="#3f3d56"/>
        <ellipse id="Ellipse_42" data-name="Ellipse 42" cx="3.601" cy="5.177" rx="3.601" ry="5.177"
                 transform="translate(687.41 8.686) rotate(-75.779)" fill="#fff"/>
        <ellipse id="Ellipse_43" data-name="Ellipse 43" cx="3.601" cy="5.177" rx="3.601" ry="5.177"
                 transform="translate(653.566 8.468) rotate(-75.779)" fill="#3f3d56"/>
        <ellipse id="Ellipse_44" data-name="Ellipse 44" cx="3.601" cy="5.177" rx="3.601" ry="5.177"
                 transform="translate(693.761 36.765) rotate(-75.779)" fill="#ff6584"/>
        <ellipse id="Ellipse_45" data-name="Ellipse 45" cx="3.272" cy="2.276" rx="3.272" ry="2.276"
                 transform="translate(707.685 49.149) rotate(-83.624)" fill="#e6e6e6"/>
        <ellipse id="Ellipse_46" data-name="Ellipse 46" cx="3.272" cy="2.276" rx="3.272" ry="2.276"
                 transform="translate(710.468 70.357) rotate(-83.624)" fill="#3f3d56"/>
        <ellipse id="Ellipse_47" data-name="Ellipse 47" cx="3.272" cy="2.276" rx="3.272" ry="2.276"
                 transform="translate(675.867 29.941) rotate(-83.624)" fill="#e6e6e6"/>
        <ellipse id="Ellipse_48" data-name="Ellipse 48" cx="3.272" cy="2.276" rx="3.272" ry="2.276"
                 transform="translate(692.899 23.543) rotate(-83.624)" fill="#ff6584"/>
        <ellipse id="Ellipse_49" data-name="Ellipse 49" cx="3.272" cy="2.276" rx="3.272" ry="2.276"
                 transform="translate(671.916 6.256) rotate(-83.624)" fill="#3f3d56"/>
        <path id="Pfad_155" data-name="Pfad 155"
              d="M535.375,429.186a84.291,84.291,0,0,1-21.627,56.5v.012a86.559,86.559,0,0,1-6.242,6.265,83.393,83.393,0,0,1-7.025,5.7q-2.557,1.866-5.251,3.524-3.2,1.986-6.576,3.674-2.5,1.261-5.113,2.349a84.958,84.958,0,0,1-51.683,4.48,81.1,81.1,0,0,1-8.476-2.418c-1.071-.357-2.142-.749-3.2-1.163a83.5,83.5,0,0,1-18.138-9.731,84.618,84.618,0,1,1,133.331-69.188Z"
              transform="translate(-238.774 -267.902)" fill="#f2f2f2"/>
        <path id="Pfad_156" data-name="Pfad 156"
              d="M788.633,366.284H642.381a4.606,4.606,0,1,1,0-9.213H788.633a4.606,4.606,0,1,1,0,9.213Z"
              transform="translate(-238.774 -267.902)" fill="#6c63ff"/>
        <path id="Pfad_157" data-name="Pfad 157"
              d="M788.633,428.47H642.381a4.606,4.606,0,1,1,0-9.213H788.633a4.606,4.606,0,1,1,0,9.213Z"
              transform="translate(-238.774 -267.902)" fill="#e6e6e6"/>
        <path id="Pfad_158" data-name="Pfad 158"
              d="M788.633,490.656H642.381a4.606,4.606,0,0,1,0-9.213H788.633a4.606,4.606,0,1,1,0,9.213Z"
              transform="translate(-238.774 -267.902)" fill="#e6e6e6"/>
        <path id="Pfad_159" data-name="Pfad 159"
              d="M422.995,628.076c-16.511-21.961-26.054-46.519-26.366-74.518a6.041,6.041,0,0,1,3.676-7.7l56.277-19.913a6.041,6.041,0,0,1,7.7,3.676l26.366,74.518a6.041,6.041,0,0,1-3.676,7.7L430.7,631.752a6.041,6.041,0,0,1-7.7-3.676Z"
              transform="translate(-238.774 -267.902)" fill="#e6e6e6"/>
        <path id="Pfad_160" data-name="Pfad 160"
              d="M419.348,604.041c-9.93-10.04-14.181-27.948-16.951-47.907a5.658,5.658,0,0,1,3.443-7.213l48.366-17.113a5.658,5.658,0,0,1,7.213,3.443l23.462,66.311a5.658,5.658,0,0,1-3.443,7.213l-29.962,10.6a25.2,25.2,0,0,1-32.129-15.335Z"
              transform="translate(-238.774 -267.902)" fill="#fff"/>
        <path id="Pfad_161" data-name="Pfad 161"
              d="M462.066,570.973,424.39,584.421a2.4,2.4,0,0,1-1.614-4.521l37.676-13.448a2.4,2.4,0,0,1,1.614,4.521Z"
              transform="translate(-238.774 -267.902)" fill="#6c63ff"/>
        <path id="Pfad_162" data-name="Pfad 162"
              d="M428.254,569.066l-8.289,2.959a2.4,2.4,0,0,1-1.614-4.521l8.289-2.959a2.4,2.4,0,0,1,1.614,4.521Z"
              transform="translate(-238.774 -267.902)" fill="#6c63ff"/>
        <path id="Pfad_163" data-name="Pfad 163"
              d="M469.16,590.849,431.485,604.3a2.4,2.4,0,0,1-1.614-4.521l37.676-13.448a2.4,2.4,0,0,1,1.614,4.521Z"
              transform="translate(-238.774 -267.902)" fill="#6c63ff"/>
        <path id="Pfad_164" data-name="Pfad 164"
              d="M465.613,580.911l-37.676,13.448a2.4,2.4,0,1,1-1.614-4.521L464,576.39a2.4,2.4,0,0,1,1.614,4.521Z"
              transform="translate(-238.774 -267.902)" fill="#6c63ff"/>
        <path id="Pfad_165" data-name="Pfad 165"
              d="M431.4,390.9c1.227,9.9,8.086,18.061,18.061,18.061A18.06,18.06,0,0,0,467.523,390.9c0-9.975-8.129-17.138-18.061-18.061C438.924,371.863,429.826,378.193,431.4,390.9Z"
              transform="translate(-238.774 -267.902)" fill="#2f2e41"/>
        <path id="Pfad_166" data-name="Pfad 166"
              d="M465.185,512.572a85.233,85.233,0,0,1-33.327-.887C437.052,508.818,452.806,510.58,465.185,512.572Z"
              transform="translate(-238.774 -267.902)" fill="#2f2e41"/>
        <path id="Pfad_167" data-name="Pfad 167"
              d="M394.891,544.34l8.675-20.966,6.835,3.8L406.274,548.5a7.6,7.6,0,1,1-11.383-4.159Z"
              transform="translate(-238.774 -267.902)" fill="#ffb6b6"/>
        <path id="Pfad_168" data-name="Pfad 168"
              d="M484.636,487.606v.012c-.311,7.3-.737,14.245-1.094,19.589a84.957,84.957,0,0,1-51.683,4.48,81.113,81.113,0,0,1-8.476-2.418,5.228,5.228,0,0,1,1.244-.587c4.146-1.4.046-2.683.081-4.019.127-4.883,1.474-10.744,3.213-16.364L420.181,508.1l-4.031,10.3s.138,8.89-2.418,6.172-2.384,6.08-2.384,6.08a8.009,8.009,0,0,0-2.027,2.1,1.778,1.778,0,0,0-.242,1.232v.012a1.539,1.539,0,0,0,.645.806c1.739,1.175-.76,4.284-1.866,5.516-.3.334-.5.53-.5.53l-10.629-.76v-.207c.046-1.255.334-7.865,1.981-9.443,1.808-1.739.921-4.491.921-4.491s4.721-4.18,1.555-7.577c-1.267-1.37-.7-9.489.852-19.992,3.4-23.17,11.539-57.948,15.063-57.453a19.547,19.547,0,0,1,13.946-14.9l11.481-3.155,2.05-8.1h16.168l2.81,5.32,11.781,5.32.15.069.368.161.138.438s-.012.012,0,.012l6.553,20.579C485.5,450.052,485.384,469.837,484.636,487.606Z"
              transform="translate(-238.774 -267.902)" fill="#6c63ff"/>
        <path id="Pfad_169" data-name="Pfad 169"
              d="M512.168,529.073,501.219,509.2l7.236-2.964,14.072,16.549a7.6,7.6,0,1,1-10.36,6.288Z"
              transform="translate(-238.774 -267.902)" fill="#ffb6b6"/>
        <path id="Pfad_170" data-name="Pfad 170"
              d="M475.344,425.25c1.948,3.5,19.758,12.5,16.671,21.534,0,0,16.732,52.348,18.908,52.006s4.3,5.066,4.3,5.066-.462,3.529.9,2.063,1.032,2.378,1.032,2.378-.65,3.393,1.073,2.471-.542,5.571-.542,5.571l-10.355,4.876-1.968-2.929s-4.2-.8-2.226-1.435-1.861-2.769-1.861-2.769-4.016-2.73-3.457-7.25-10.423-13.408-10.423-13.408c-7.55-14.906-11.68-30.21-11.666-46Z"
              transform="translate(-238.774 -267.902)" fill="#6c63ff"/>
        <circle id="Ellipse_50" data-name="Ellipse 50" cx="16.015" cy="16.015" r="16.015"
                transform="translate(196.669 110.103)" fill="#ffb6b6"/>
        <path id="Pfad_171" data-name="Pfad 171"
              d="M434.875,395.765c.507,3.48,3.473,8.336,2.779,8.336s-5.633-14.347-.695-15.282c3.582-.679,4.383-.083,7.731-1.535l-.472.445c2.216,1.612,5.3.618,7.829-.431s5.613-2.035,7.836-.431c1.4,1.007,1.987,2.758,2.855,4.244s2.473,2.9,4.126,2.445a3.266,3.266,0,0,0,2.084-3.23c-.007-1.375-1.8-2.684-1.195-3.918,1.787-3.657.18-6.149-3.716-7.87q-2.126-.323-4.251-.66a12.058,12.058,0,0,1,2.667-2.681,6.1,6.1,0,0,0-2.153-2.758,6.76,6.76,0,0,0-3.848-.556l-8.787.458a15.5,15.5,0,0,0-6.349,1.236c-2.417,1.243-4,3.668-5.154,6.134C433.576,385.255,433.986,389.715,434.875,395.765Z"
              transform="translate(-238.774 -267.902)" fill="#2f2e41"/>
        <path id="Pfad_172" data-name="Pfad 172" d="M835.5,385.26H594.65a1,1,0,0,1,0-2H835.5a1,1,0,0,1,0,2Z"
              transform="translate(-238.774 -267.902)" fill="#e6e6e6"/>
        <path id="Pfad_173" data-name="Pfad 173" d="M835.5,447.26H594.65a1,1,0,0,1,0-2H835.5a1,1,0,0,1,0,2Z"
              transform="translate(-238.774 -267.902)" fill="#e6e6e6"/>
        <path id="Pfad_174" data-name="Pfad 174" d="M835.5,509.26H594.65a1,1,0,0,1,0-2H835.5a1,1,0,0,1,0,2Z"
              transform="translate(-238.774 -267.902)" fill="#e6e6e6"/>
        <path id="Pfad_175" data-name="Pfad 175"
              d="M871.35,505.3a37,37,0,0,1-24.046-8.879c-2.235-1.914-4.617-5.24-7.079-9.887a22.61,22.61,0,0,1-.717-19.52,25.946,25.946,0,0,1-4.284,3.514l-.783.521-.045-.939c-.03-.611-.045-1.22-.045-1.81,0-3.476,2.629-7,1.417-10.217-5.111-13.542-21.32-27,2.172-47.96,2.173-1.939-.73-5.815-.73-8.749,0-28.748,40.63-78.482,52.146-52.136,14.2,32.492,38.669,29.017,49.508,35.728l.157.475-.463.187a27.946,27.946,0,0,1-7.425,1.975,35.4,35.4,0,0,0,8.279.694l.431-.015.1.419a52.373,52.373,0,0,1,1.555,12.674l0,.462a23.093,23.093,0,0,0,7.628,17.219,37.084,37.084,0,0,1,12.1,27.364c0,6.094-4.142,14.094-7.617,19.732a11.158,11.158,0,0,1-8.191,5.247,10.9,10.9,0,0,1-8.794-2.841,36.035,36.035,0,0,0,6.355,9l.474.488-.589.343a36.971,36.971,0,0,1-18.638,5.033h-.383a36.091,36.091,0,0,0-25.891,10.568,37.279,37.279,0,0,1-26.6,11.313Z"
              transform="translate(-238.774 -267.902)" fill="#e6e6e6"/>
        <path id="Pfad_176" data-name="Pfad 176"
              d="M858.62,563.89a.665.665,0,0,1-.658-.572,222.79,222.79,0,0,1-.31-46.711c2.3-24.512,9.672-59.817,31.766-88.813a.665.665,0,0,1,1.059.807c-21.9,28.745-29.219,63.792-31.5,88.131a221.279,221.279,0,0,0,.3,46.4.666.666,0,0,1-.66.759Z"
              transform="translate(-238.774 -267.902)" fill="#3f3d56"/>
        <path id="Pfad_177" data-name="Pfad 177"
              d="M876.65,468.695a.665.665,0,0,1-.392-1.2A91.711,91.711,0,0,1,896.5,457.185c11.17-4.089,28.156-7.8,45.643-2.231a.665.665,0,1,1-.4,1.268c-17.129-5.451-33.807-1.8-44.782,2.213a90.2,90.2,0,0,0-19.921,10.133.662.662,0,0,1-.391.127Z"
              transform="translate(-238.774 -267.902)" fill="#3f3d56"/>
        <path id="Pfad_178" data-name="Pfad 178"
              d="M846.2,392.845a.665.665,0,0,1,1.172-.477,91.711,91.711,0,0,1,11.738,19.451c4.883,10.847,9.8,27.522,5.513,45.364a.665.665,0,1,1-1.294-.311c4.2-17.477-.634-33.849-5.432-44.506a90.2,90.2,0,0,0-11.541-19.14.663.663,0,0,1-.155-.38Z"
              transform="translate(-238.774 -267.902)" fill="#3f3d56"/>
        <path id="Pfad_179" data-name="Pfad 179"
              d="M302.048,491.984a36.091,36.091,0,0,0-25.891-10.568h-.383a36.971,36.971,0,0,1-18.638-5.033l-.589-.343.474-.489a36.036,36.036,0,0,0,6.355-9,10.9,10.9,0,0,1-8.794,2.841,11.158,11.158,0,0,1-8.191-5.247c-3.475-5.638-7.617-13.638-7.617-19.732a37.084,37.084,0,0,1,12.1-27.364,23.093,23.093,0,0,0,7.628-17.219l0-.462a52.39,52.39,0,0,1,1.557-12.682l.1-.411.431.015a35.4,35.4,0,0,0,8.279-.694,27.946,27.946,0,0,1-7.425-1.975l-.463-.187.157-.475c10.839-6.711,35.306-3.236,49.508-35.728,11.515-26.347,52.146,23.388,52.146,52.136,0,2.933-2.9,6.81-.73,8.749,23.493,20.959,7.283,34.417,2.172,47.96-1.213,3.213,1.417,6.74,1.417,10.217,0,.59-.015,1.2-.045,1.81l-.045.939-.783-.521a25.944,25.944,0,0,1-4.285-3.514,22.611,22.611,0,0,1-.717,19.52c-2.462,4.647-4.844,7.973-7.079,9.887a36.963,36.963,0,0,1-50.648-2.433Z"
              transform="translate(-238.774 -267.902)" fill="#e6e6e6"/>
        <path id="Pfad_180" data-name="Pfad 180"
              d="M341.38,561.891a.665.665,0,0,0,.658-.572,222.786,222.786,0,0,0,.31-46.711c-2.3-24.512-9.672-59.817-31.766-88.813a.665.665,0,0,0-1.059.807c21.9,28.745,29.219,63.792,31.5,88.131a221.283,221.283,0,0,1-.3,46.4.666.666,0,0,0,.66.759Z"
              transform="translate(-238.774 -267.902)" fill="#3f3d56"/>
        <path id="Pfad_181" data-name="Pfad 181"
              d="M323.35,466.7a.665.665,0,0,0,.392-1.2A91.711,91.711,0,0,0,303.5,455.186c-11.17-4.089-28.156-7.8-45.643-2.231a.665.665,0,0,0,.4,1.268c17.128-5.451,33.807-1.8,44.782,2.213a90.2,90.2,0,0,1,19.921,10.133A.663.663,0,0,0,323.35,466.7Z"
              transform="translate(-238.774 -267.902)" fill="#3f3d56"/>
        <path id="Pfad_182" data-name="Pfad 182"
              d="M353.8,390.846a.665.665,0,0,0-1.172-.477,91.71,91.71,0,0,0-11.738,19.451c-4.883,10.847-9.8,27.522-5.513,45.364a.665.665,0,1,0,1.294-.311c-4.2-17.477.634-33.849,5.432-44.506a90.2,90.2,0,0,1,11.542-19.14A.663.663,0,0,0,353.8,390.846Z"
              transform="translate(-238.774 -267.902)" fill="#3f3d56"/>
    </g>
</svg>
