<svg xmlns="http://www.w3.org/2000/svg" width="1041.029" height="1090.66" viewBox="0 0 1041.029 1090.66">
    <g id="Gruppe_13" data-name="Gruppe 13" transform="translate(-2827.129 -726.982)" opacity="0.704">
        <path id="Pfad_95" data-name="Pfad 95" d="M151.532,0c83.689,0,135.21,197.054,135.21,284.731s-51.521,32.776-135.21,32.776S0,246.431,0,158.754,67.843,0,151.532,0Z" transform="matrix(0.914, 0.407, -0.407, 0.914, 2992.648, 851.035)" fill="#5b8c95" opacity="0.144"/>
        <path id="Pfad_89" data-name="Pfad 89" d="M214.53.439C321.436,9.854,463.184,152.882,531.133,319.9S567.5,614.687,460.6,605.273,84.286,468.366,16.337,301.346,107.624-8.975,214.53.439Z" transform="translate(3087.989 984.374) rotate(-27)" fill="#f09250" opacity="0.063"/>
        <path id="Pfad_90" data-name="Pfad 90" d="M217.771.988c77.845-13.125,243.091,106.337,208.163,250.6S220.887,593.56,143.042,606.685-21.352,430.22,13.576,285.96,139.926,14.113,217.771.988Z" transform="translate(3029.582 1099.625) rotate(20)" fill="#a09246" opacity="0.04"/>
    </g>
    <text id="Cityhoy" transform="translate(188.848 631.101)" fill="#0d2932" font-size="80" font-family="Gibson-Regular, Gibson"><tspan x="0" y="0">Cityhoy</tspan></text>
    <g id="Gruppe_23" data-name="Gruppe 23" transform="translate(54.532 147.718)">
        <path id="Pfad_54" data-name="Pfad 54" d="M751.146,316.606a79.621,79.621,0,1,1-23.22-56.549,79.828,79.828,0,0,1,23.22,56.549Z" transform="translate(-196.684 -100.617)" fill="#f2f2f2"/>
        <path id="Pfad_55" data-name="Pfad 55" d="M884.005,363.14l11.224-21.432c-10.065-12.154-43.089-26.9-43.089-26.9l-44.7-40.681a10.681,10.681,0,1,0-13.118,13.021l48.286,57.911Z" transform="translate(-196.684 -100.617)" fill="#9e616a"/>
        <path id="Pfad_56" data-name="Pfad 56" d="M878.568,361.661l15.849,5.046a54.393,54.393,0,0,0,35.295-.786h0a19.641,19.641,0,0,0,12.685-16.4h0a19.6,19.6,0,0,0-16.312-21.206c-14.863-2.443-34.014-3.647-40.846,4.483l-.069.082Z" transform="translate(-196.684 -100.617)" fill="#3f3d56"/>
        <circle id="Ellipse_16" data-name="Ellipse 16" cx="79.828" cy="79.828" r="79.828" transform="translate(488.058 167)" fill="#fff"/>
        <path id="Pfad_57" data-name="Pfad 57" d="M731.991,316.22a75,75,0,0,1-5.351,17.08c-14.082,29.79,26.02,20.08,40.351,20.08,15.669,0,30.661,8.239,28.371-28.371-.978-15.638-12.7-28.371-28.371-28.371C753.607,296.638,734.79,302.586,731.991,316.22Z" transform="translate(-196.684 -100.617)" fill="#2f2e41"/>
        <circle id="Ellipse_17" data-name="Ellipse 17" cx="23.055" cy="23.055" r="23.055" transform="translate(544.905 206.646)" fill="#ffb6b6"/>
        <path id="Pfad_58" data-name="Pfad 58" d="M748.987,306.817a26.409,26.409,0,0,1,40.15,23.048c-11.748,2.949-24.089,5.207-36.617.705l-2.959-7.241-1.744,7.246c-3.815,1.559-7.64,2.879-11.465-.015A26.965,26.965,0,0,1,748.987,306.817Z" transform="translate(-196.684 -100.617)" fill="#2f2e41"/>
        <path id="Pfad_59" data-name="Pfad 59" d="M826.64,400.525A79.8,79.8,0,0,1,714.956,408.6l6.847-19.105a20.546,20.546,0,0,1,17.452-11.984l4.356-.267L754,368.282s27.986-1,27.571-1.478L798.52,377l-.014-.07,6.664.408a20.537,20.537,0,0,1,17.452,11.984Z" transform="translate(-196.684 -100.617)" fill="#6c63ff"/>
        <path id="Pfad_60" data-name="Pfad 60" d="M757.567,729.462l-1.984-27.589a89.243,89.243,0,0,0-41.9-9.4c20.432,15.793,18.8,47.358,32.945,68.96a53.681,53.681,0,0,0,40.028,23.722l17,9.783A89.952,89.952,0,0,0,782.717,722.6a86.887,86.887,0,0,0-16.368-14.4C762.632,718.871,757.567,729.462,757.567,729.462Z" transform="translate(-196.684 -100.617)" fill="#f2f2f2"/>
        <path id="Pfad_61" data-name="Pfad 61" d="M240.567,240.462l-1.984-27.589a89.244,89.244,0,0,0-41.9-9.4c20.432,15.793,18.8,47.358,32.945,68.96a53.681,53.681,0,0,0,40.028,23.722l17,9.783A89.952,89.952,0,0,0,265.717,233.6a86.89,86.89,0,0,0-16.368-14.4C245.632,229.871,240.567,240.462,240.567,240.462Z" transform="translate(-196.684 -100.617)" fill="#f2f2f2"/>
        <path id="Pfad_62" data-name="Pfad 62" d="M635.268,685H622l-6.31-51.159H635.27Z" fill="#9e616a"/>
        <path id="Pfad_63" data-name="Pfad 63" d="M835.334,798.471l-42.768,0v-.541a16.647,16.647,0,0,1,16.645-16.646h0l7.812-5.927,14.576,5.928h3.733Z" transform="translate(-196.684 -100.617)" fill="#2f2e41"/>
        <path id="Pfad_64" data-name="Pfad 64" d="M752.165,685H738.9l-6.31-51.159h19.576Z" fill="#9e616a"/>
        <path id="Pfad_65" data-name="Pfad 65" d="M952.232,798.471l-42.768,0v-.541a16.647,16.647,0,0,1,16.645-16.646h0l7.812-5.927,14.576,5.928h3.733Z" transform="translate(-196.684 -100.617)" fill="#2f2e41"/>
        <path id="Pfad_66" data-name="Pfad 66" d="M928.676,511.8l11.156,105.981S954.683,723.9,951.894,738.543s.7,16.734.7,16.734l-25.448-1.812s.7-9.064-3.486-13.248-2.092-16.734-2.092-16.734L872.2,550.848,842.218,641.49s-4.881,99.706-5.578,101.1-2.789,20.22-2.789,20.22h-25.8s3.486-11.156-1.395-14.642-9.064-.7-4.881-6.972,5.578-13.945,4.183-17.431-1.395-17.431-1.395-17.431,2.092-188.255,13.945-194.53S928.676,511.8,928.676,511.8Z" transform="translate(-196.684 -100.617)" fill="#2f2e41"/>
        <circle id="Ellipse_18" data-name="Ellipse 18" cx="27.439" cy="27.439" r="27.439" transform="translate(651.722 141.724)" fill="#9e616a"/>
        <path id="Pfad_67" data-name="Pfad 67" d="M938.159,523.354C885.02,534.328,814.6,515.461,814.6,515.461l18.785-81.43-6.679-85.218c-.816-10.421,5.12-20.19,14.354-23.651l12.75-4.776L864.35,305.3l30.1.988,12.034,15.84,9.5,5.038,20.589,10.92.091.045v.045L930.2,400.847l-3.9,37.788s11.835,42.5,9.406,48.136-.317,2.909.272,5.917,2.392,3.2,2.664,9.125S938.159,523.354,938.159,523.354Z" transform="translate(-196.684 -100.617)" fill="#3f3d56"/>
        <path id="Pfad_68" data-name="Pfad 68" d="M1002.4,799.383H591.925a.919.919,0,0,1,0-1.839H1002.4a.919.919,0,1,1,0,1.839Z" transform="translate(-196.684 -100.617)" fill="#ccc"/>
        <path id="Pfad_69" data-name="Pfad 69" d="M874.51,295.9a84.513,84.513,0,0,0,14.346-1.375c4.687-1.08,15.027-9.076,17.846-13.8h0c2.094-3.51,3.351-8.938,4.036-12.874a37.779,37.779,0,0,0-7.379-29.811,11.935,11.935,0,0,0-4.926-3.989c-.174-.063-.354-.118-.534-.165a14.727,14.727,0,0,1-7.44-4.342,12.14,12.14,0,0,0-1.25-1.221,18.14,18.14,0,0,0-7.664-3.6c-4.529-1.088-11.006.275-19.253,4.054-4.143,1.9-8.742,1.369-12.286.7a1.154,1.154,0,0,0-1.076.4,8.144,8.144,0,0,1-5.476,2.349c-1.258.088-2.535,1.866-4.074,4.182-.349.526-.757,1.139-1.052,1.514l-.059-.7-.692.8a9.883,9.883,0,0,0,4.876,15.981,19.271,19.271,0,0,0,3.891.517c.795.051,1.617.1,2.407.22a14.9,14.9,0,0,1,11.318,9.38A3.9,3.9,0,0,0,866,265.851a6.438,6.438,0,0,1,5.837-1.219,4.274,4.274,0,0,1,1.944,2.093,5.569,5.569,0,0,0,2.176,2.41c3.235,1.564,3.644,8.85,2.654,14.959-.954,5.888-3.03,10.184-5.047,10.445-1.553.2-1.729.317-1.834.595l-.094.249.181.226a6.364,6.364,0,0,0,2.7.29Z" transform="translate(-196.684 -100.617)" fill="#2f2e41"/>
        <path id="Pfad_70" data-name="Pfad 70" d="M764.57,428.272A80.828,80.828,0,1,1,845.4,347.445,80.828,80.828,0,0,1,764.57,428.272Zm0-159.655A78.828,78.828,0,1,0,843.4,347.445a78.828,78.828,0,0,0-78.828-78.828Z" transform="translate(-196.684 -100.617)" fill="#3f3d56"/>
        <circle id="Ellipse_19" data-name="Ellipse 19" cx="79.828" cy="79.828" r="79.828" transform="translate(209.058 1)" fill="#fff"/>
        <circle id="Ellipse_20" data-name="Ellipse 20" cx="26.03" cy="26.03" r="26.03" transform="translate(266.55 36.91)" fill="#ffb8b8"/>
        <path id="bf427902-b9bf-4946-b5d7-5c1c7e04535e" d="M512.184,146.361s6.777-12.956-8.133-14.134c0,0-12.711-11.531-25.668-2.108,0,0-7.067,0-10.932,8,0,0-5.558-2.108-6.78,3.534,0,0-4.067,11.779,0,22.379s5.418,11.779,5.418,11.779-2.854-13.155,13.414-14.333,31.191-11.369,32.547,1.588,2.846,7.1,2.846,7.1S527.772,151.661,512.184,146.361Z" transform="translate(-196.684 -100.617)" fill="#2f2e41"/>
        <path id="Pfad_71" data-name="Pfad 71" d="M545.6,234.525A79.8,79.8,0,0,1,433.92,242.6l6.847-19.105a20.546,20.546,0,0,1,17.452-11.984l4.356-.267,10.387-8.958s27.986-1,27.571-1.478L517.484,211l-.014-.07,6.664.408a20.537,20.537,0,0,1,17.452,11.984Z" transform="translate(-196.684 -100.617)" fill="#6c63ff"/>
        <path id="Pfad_72" data-name="Pfad 72" d="M485.57,262.272A80.828,80.828,0,1,1,566.4,181.445a80.828,80.828,0,0,1-80.828,80.828Zm0-159.655A78.828,78.828,0,1,0,564.4,181.445a78.828,78.828,0,0,0-78.828-78.828Z" transform="translate(-196.684 -100.617)" fill="#3f3d56"/>
        <circle id="Ellipse_21" data-name="Ellipse 21" cx="79.828" cy="79.828" r="79.828" transform="translate(22.735 127)" fill="#fff"/>
        <path id="Pfad_73" data-name="Pfad 73" d="M262.247,281.477c3.3-10.52,10.807-20.168,21.188-23.724s25.583,1.861,33.387,9.639c14.276,14.228,17.76,63.106,7.952,78.552-1.951-.1-8.683-.18-10.657-.254l-2.793-9.31V345.6q-4.719-.146-9.511-.2a41.393,41.393,0,0,1-40.867-40.371C260.691,294.78,260.947,285.622,262.247,281.477Z" transform="translate(-196.684 -100.617)" fill="#2f2e41"/>
        <circle id="Ellipse_22" data-name="Ellipse 22" cx="22.75" cy="22.75" r="22.75" transform="translate(78.629 170.224)" fill="#9e616a"/>
        <path id="Pfad_74" data-name="Pfad 74" d="M278.429,273.611l26.195-13.116h0a32.924,32.924,0,0,1,19.284,27.278l.653,7.821L313.591,292.8l-1.2-10-1.863,9.22-5.062-1.288.048-15.526-5.065,15.514-18.08-4.154Z" transform="translate(-196.684 -100.617)" fill="#2f2e41"/>
        <path id="Pfad_75" data-name="Pfad 75" d="M358.484,360.271A79.8,79.8,0,0,1,246.8,368.343l6.847-19.105A20.546,20.546,0,0,1,271.1,337.253l4.356-.267,10.387-8.958s27.986-1,27.571-1.478l16.952,10.2-.014-.07,6.664.408a20.537,20.537,0,0,1,17.452,11.984Z" transform="translate(-196.684 -100.617)" fill="#6c63ff"/>
        <path id="Pfad_76" data-name="Pfad 76" d="M299.247,388.272a80.828,80.828,0,1,1,80.828-80.828,80.828,80.828,0,0,1-80.828,80.828Zm0-159.655a78.828,78.828,0,1,0,78.828,78.828,78.828,78.828,0,0,0-78.828-78.828Z" transform="translate(-196.684 -100.617)" fill="#3f3d56"/>
        <path id="Pfad_77" data-name="Pfad 77" d="M838.3,388.858,826.211,367.9c-15.655,1.989-45.793,21.978-45.793,21.978l-58.294,15.95a10.681,10.681,0,1,0,3.968,18.052l74.767-9.753Z" transform="translate(-196.684 -100.617)" fill="#9e616a"/>
        <path id="Pfad_78" data-name="Pfad 78" d="M834.136,392.657l27.057-22.663,3.936-18.242a19.641,19.641,0,0,0-7.052-19.5h0a19.6,19.6,0,0,0-26.644,2.415c-10.024,11.242-21.3,26.768-18.094,36.893l.032.1Z" transform="translate(-196.684 -100.617)" fill="#3f3d56"/>
        <path id="Pfad_79" data-name="Pfad 79" d="M419.43,471.387H317.765a10.288,10.288,0,0,1-10.277-10.277V398.494a10.288,10.288,0,0,1,10.277-10.277H419.43a10.288,10.288,0,0,1,10.277,10.277V461.11a10.288,10.288,0,0,1-10.277,10.277Z" transform="translate(-196.684 -100.617)" fill="#e6e6e6"/>
        <path id="Pfad_80" data-name="Pfad 80" d="M379.037,463.322H324.912a9.636,9.636,0,0,1-9.625-9.624v-47.79a9.636,9.636,0,0,1,9.625-9.625h87.373a9.635,9.635,0,0,1,9.625,9.625v14.543a42.92,42.92,0,0,1-42.872,42.871Z" transform="translate(-196.684 -100.617)" fill="#fff"/>
        <path id="Pfad_81" data-name="Pfad 81" d="M403.568,422.451H333.628a2.281,2.281,0,1,1,0-4.562h69.941a2.281,2.281,0,0,1,0,4.562Z" transform="translate(-196.684 -100.617)" fill="#6c63ff"/>
        <path id="Pfad_82" data-name="Pfad 82" d="M344.568,431.465H333.628a2.281,2.281,0,0,1,0-4.562h10.941a2.281,2.281,0,0,1,0,4.562Z" transform="translate(-196.684 -100.617)" fill="#6c63ff"/>
        <path id="Pfad_83" data-name="Pfad 83" d="M363.945,440.478H333.628a2.281,2.281,0,0,1,0-4.562h30.318a2.281,2.281,0,1,1,0,4.562Z" transform="translate(-196.684 -100.617)" fill="#6c63ff"/>
        <circle id="Ellipse_23" data-name="Ellipse 23" cx="21.506" cy="21.506" r="21.506" transform="translate(85.751 264.847)" fill="#3f3d56"/>
        <path id="Pfad_84" data-name="Pfad 84" d="M683.43,187.387H581.765a10.288,10.288,0,0,1-10.277-10.277V114.494a10.288,10.288,0,0,1,10.277-10.277H683.43a10.288,10.288,0,0,1,10.277,10.277V177.11a10.288,10.288,0,0,1-10.277,10.277Z" transform="translate(-196.684 -100.617)" fill="#e6e6e6"/>
        <path id="Pfad_85" data-name="Pfad 85" d="M643.037,179.322H588.912a9.636,9.636,0,0,1-9.625-9.624v-47.79a9.636,9.636,0,0,1,9.625-9.625h87.373a9.635,9.635,0,0,1,9.625,9.625v14.543a42.92,42.92,0,0,1-42.872,42.871Z" transform="translate(-196.684 -100.617)" fill="#fff"/>
        <path id="Pfad_86" data-name="Pfad 86" d="M667.568,138.451H597.628a2.281,2.281,0,1,1,0-4.562h69.94a2.281,2.281,0,0,1,0,4.562Z" transform="translate(-196.684 -100.617)" fill="#6c63ff"/>
        <path id="Pfad_87" data-name="Pfad 87" d="M608.568,147.465H597.628a2.281,2.281,0,1,1,0-4.562h10.94a2.281,2.281,0,1,1,0,4.562Z" transform="translate(-196.684 -100.617)" fill="#6c63ff"/>
        <path id="Pfad_88" data-name="Pfad 88" d="M627.945,156.478H597.628a2.281,2.281,0,1,1,0-4.562h30.318a2.281,2.281,0,1,1,0,4.562Z" transform="translate(-196.684 -100.617)" fill="#6c63ff"/>
        <circle id="Ellipse_24" data-name="Ellipse 24" cx="21.506" cy="21.506" r="21.506" transform="translate(349.75 55.847)" fill="#3f3d56"/>
    </g>
    <text id="Mantente_al_día_con_tu_ciudad" data-name="Mantente al día con tu ciudad" transform="translate(188.848 680.101)" fill="#0d2932" font-size="30" font-family="Europa-Light" font-weight="300"><tspan x="0" y="0">Mantente al día con tu ciudad</tspan></text>
    <g id="Gruppe_24" data-name="Gruppe 24" transform="translate(-835.446 504.411)">
        <path id="Pfad_94" data-name="Pfad 94" d="M23.928,0A23.928,23.928,0,1,1,0,23.928,23.928,23.928,0,0,1,23.928,0Z" transform="translate(1200.97 83.939)" fill="#554994"/>
        <path id="Pfad_93" data-name="Pfad 93" d="M-7.133,10.527S3.4-6.465,10-6.465,28.355,10.527,28.355,10.527" transform="translate(1214.248 103.438)" fill="none" stroke="#aea9ba" stroke-linecap="round" stroke-width="2"/>
        <path id="Pfad_92" data-name="Pfad 92" d="M0,0H27.37" transform="translate(1210.829 114.095)" fill="none" stroke="#aea9ba" stroke-linecap="round" stroke-width="2"/>
    </g>
</svg>
